<svg xmlns="http://www.w3.org/2000/svg" xmlns:xlink="http://www.w3.org/1999/xlink" id="svg8420" version="1.1" viewBox="4524.77 2459.38 111.93 111.93">
    <defs id="defs8422">
        <linearGradient id="linearGradient12924">
            <stop id="stop12926" stop-color="#4e4e4e" offset="0"/>
            <stop id="stop12928" stop-color="#1a1a1a" offset="1"/>
        </linearGradient>
        <linearGradient id="linearGradient9344">
            <stop id="stop9346" stop-color="#121212" offset="0"/>
            <stop id="stop9352" stop-color="#484848" offset=".77448"/>
            <stop id="stop9354" stop-color="#c0c0c0" offset=".94609"/>
            <stop id="stop9348" stop-color="#121212" offset="1"/>
        </linearGradient>
        <linearGradient id="linearGradient9327">
            <stop id="stop9329" stop-color="#565656" offset="0"/>
            <stop id="stop9331" stop-color="#151515" offset="1"/>
        </linearGradient>
        <linearGradient id="linearGradient9290">
            <stop id="stop9292" stop-color="#071d3c" offset="0"/>
            <stop id="stop9294" stop-color="#374d58" offset="1"/>
        </linearGradient>
        <linearGradient id="linearGradient9248">
            <stop id="stop9250" stop-color="#595959" offset="0"/>
            <stop id="stop9252" offset="1"/>
        </linearGradient>
        <linearGradient id="linearGradient13209" x1="318.7" gradientUnits="userSpaceOnUse" x2="320.72" y1="1247.1" y2="1319.3">
            <stop id="stop12990" offset="0"/>
            <stop id="stop12992" stop-color="#323137" stop-opacity=".97436" offset=".16307"/>
            <stop id="stop12994" stop-color="#787583" offset="1"/>
        </linearGradient>
        <linearGradient id="linearGradient13233" x1="310.62" gradientUnits="userSpaceOnUse" x2="329.18" y1="-158.76" y2="-142.73">
            <stop id="stop9258" stop-color="#111" offset="0"/>
            <stop id="stop9260" stop-color="#3b3b3b" offset="1"/>
        </linearGradient>
        <linearGradient id="linearGradient13235" x1="317.21" gradientUnits="userSpaceOnUse" x2="327.13" y1="-158.23" y2="-143.2">
            <stop id="stop9266" stop-color="#0c336b" offset="0"/>
            <stop id="stop9268" stop-color="#071f41" offset="1"/>
        </linearGradient>
        <linearGradient id="linearGradient14510" x1="-28.284" xlink:href="#linearGradient9069" gradientUnits="userSpaceOnUse" y1="1200.1" gradientTransform="matrix(0 -1 1 0 1215.5 794.83)" x2="32.577" y2="1257.4"/>
        <linearGradient id="linearGradient14605" x1="1034.9" xlink:href="#linearGradient9344" gradientUnits="userSpaceOnUse" x2="1052.3" y1="613.79" y2="604.95"/>
        <linearGradient id="linearGradient14628" x1="1985.5" xlink:href="#linearGradient15996" gradientUnits="userSpaceOnUse" x2="2186.8" y1="150.09" y2="869.95"/>
        <linearGradient id="linearGradient15832" y2="-1101.3" gradientUnits="userSpaceOnUse" y1="-3013.3" x2="2432.9" x1="1594.7">
            <stop id="stop15980" stop-color="#919191" offset="0"/>
            <stop id="stop15982" offset="1"/>
        </linearGradient>
        <linearGradient id="linearGradient15901" x1="352.8" xlink:href="#linearGradient9248" gradientUnits="userSpaceOnUse" y1="-165.96" gradientTransform="matrix(0 -1 1 0 946.9 -1226.5)" x2="349.89" y2="-135.78"/>
        <linearGradient id="linearGradient15903" x1="351.16" xlink:href="#linearGradient9290" gradientUnits="userSpaceOnUse" y1="-149.94" gradientTransform="matrix(0 -1 1 0 946.28 -1226.5)" x2="351.03" y2="-146.77"/>
        <linearGradient id="linearGradient15920" x1="2098.2" gradientUnits="userSpaceOnUse" y1="-2613.3" gradientTransform="translate(16.971 134.55)" x2="2868.5" y2="-865.31">
            <stop id="stop15986" stop-color="#919191" offset="0"/>
            <stop id="stop15988" offset="1"/>
        </linearGradient>
    </defs>
    <g id="layer1" transform="translate(1500.6 4094.5)">
        <g id="g15905" transform="matrix(0 1 -1 0 1500.9 -4659.2)">
            <path id="path15802" style="color: rgb(0, 0, 0)" transform="matrix(0 -.77483 .77483 0 2112.2 -1331.9)" fill="url(#linearGradient13209)" d="m391.43 1249.1c0 39.889-32.337 72.226-72.226 72.226s-72.226-32.337-72.226-72.226 32.337-72.226 72.226-72.226 72.226 32.337 72.226 72.226z"/>
            <path id="path15804" style="color: rgb(0, 0, 0)" fill="#515151" d="m3024.1-1579.2c0 19.778 10.275 37.142 25.763 47.095-15.107-10.206-25.036-27.491-25.036-47.095s9.9296-36.889 25.036-47.095c-15.485 9.9538-25.763 27.319-25.763 47.095z"/>
            <path id="path15806" style="color: rgb(0, 0, 0); text-transform: none; text-indent: 0px;" fill="#908f94" d="m3060.1-1567.8c0 4.8884 3.9736 8.8621 8.862 8.8621h22.179c4.8884 0 8.862-3.9737 8.862-8.8621v-22.712c0-4.8884-3.9736-8.8862-8.862-8.8862h-22.179c-4.8884 0-8.862 3.9978-8.862 8.8862v22.712zm3.0993 0v-22.712c0-3.225 2.5377-5.7869 5.7627-5.7869h22.179c3.225 0 5.7627 2.5619 5.7627 5.7869v22.712c0 3.225-2.5377 5.7628-5.7627 5.7628h-22.179c-3.225 0-5.7627-2.5378-5.7627-5.7628z"/>
        </g>
    </g>
</svg>
